# xmcd CD database file
# Copyright (C) 1993-1998 Ti Kan
# 
# Track frame offsets:
#     150
#     4790
#     89250
#     127200
#     142200
# 
# Disc length: 2238 seconds
# 
# Revision: 1
# Processed by: cddbd v1.4b41PL1 Copyright (c) Steve Scherf et al.
# Submitted via: DiscPlay 4.0.4
# 
DISCID=4408bc05
DTITLE=Dezo Ursiny - Pevnina Detstva
DYEAR=1900
DGENRE=
TTITLE0=Vtaci
TTITLE1=Ostrov
TTITLE2=Privretymi Ocami
TTITLE3=Nove Dieta
TTITLE4=Jedneho Dna
EXTD=
EXTT0=
EXTT1=
EXTT2=
EXTT3=
EXTT4=
PLAYORDER=
